# xmcd
#
# Track frame offsets:
#	150
#	3675
#	23547
#	45136
#	64296
#	85687
#	103471
#	123637
#	140517
#	160642
#	179055
#	198896
#
# Disc length: 2913 seconds
#
# Revision: 4
# Processed by: cddbd v1.5.2PL0 Copyright (c) Steve Scherf et al.
# Submitted via: EasyCDDAExtractor 15.3.0.1
#
DISCID=9d0b5f0c
DTITLE=Grupo Mania - Masters Of The Stage - 2000 Veces Mania
DYEAR=1999
DGENRE=Latin
TTITLE0=Lluvia Para Un Dia Seco
TTITLE1=Bajo La Lluvia
TTITLE2=Sensual
TTITLE3=¡Que Buena!
TTITLE4=Soñare
TTITLE5=Por Amor
TTITLE6=Adivina
TTITLE7=Te Voy A Proponer
TTITLE8=Aceptame Como Soy
TTITLE9=Ya No Mas
TTITLE10=¡Esa Eh!
TTITLE11=Caricias Prohibidas
EXTD=\nYEAR: 2000  ID3G:  86
EXTT0=
EXTT1=
EXTT2=
EXTT3=
EXTT4=
EXTT5=
EXTT6=
EXTT7=
EXTT8=
EXTT9=
EXTT10=
EXTT11=
PLAYORDER=
